<svg xmlns="http://www.w3.org/2000/svg" viewBox="0 0 100 100">
  <defs>
    <radialGradient id="cosmicBgAda" cx="50%" cy="50%" r="70%">
      <stop offset="0%" style="stop-color:#1a1a4a"/>
      <stop offset="50%" style="stop-color:#0d0d20"/>
      <stop offset="100%" style="stop-color:#050510"/>
    </radialGradient>
    <radialGradient id="nebulaAda" cx="40%" cy="40%" r="55%">
      <stop offset="0%" style="stop-color:#7b2cbf;stop-opacity:0.2"/>
      <stop offset="100%" style="stop-color:#7b2cbf;stop-opacity:0"/>
    </radialGradient>
  </defs>
  <!-- Cosmic background -->
  <circle cx="50" cy="50" r="50" fill="url(#cosmicBgAda)"/>
  <circle cx="50" cy="50" r="50" fill="url(#nebulaAda)"/>
  <!-- Stars -->
  <circle cx="15" cy="20" r="0.6" fill="#fff" opacity="0.7"/>
  <circle cx="85" cy="18" r="0.5" fill="#4fc3f7" opacity="0.6"/>
  <circle cx="80" cy="78" r="0.6" fill="#fff" opacity="0.5"/>
  <circle cx="20" cy="82" r="0.5" fill="#4fc3f7" opacity="0.6"/>
  <circle cx="10" cy="50" r="0.4" fill="#ffd700" opacity="0.5"/>
  <path d="M15 20 L28 32 M85 18 L72 30" stroke="#7b2cbf" stroke-width="0.3" opacity="0.25"/>
  <!-- Hair with Victorian style -->
  <ellipse cx="50" cy="30" rx="24" ry="18" fill="#3d2314"/>
  <ellipse cx="30" cy="35" rx="8" ry="12" fill="#3d2314"/>
  <ellipse cx="70" cy="35" rx="8" ry="12" fill="#3d2314"/>
  <!-- Hair bun -->
  <circle cx="50" cy="18" r="10" fill="#3d2314"/>
  <!-- Face -->
  <ellipse cx="50" cy="45" rx="18" ry="20" fill="#f0d9c8"/>
  <!-- Eyes -->
  <ellipse cx="43" cy="42" rx="3" ry="2.5" fill="#4a5a3a"/>
  <ellipse cx="57" cy="42" rx="3" ry="2.5" fill="#4a5a3a"/>
  <!-- Gentle smile -->
  <path d="M 44 52 Q 50 56 56 52" stroke="#8b6b5a" stroke-width="1.5" fill="none"/>
  <!-- Victorian dress -->
  <ellipse cx="50" cy="88" rx="24" ry="16" fill="#6a4a8a"/>
  <ellipse cx="50" cy="72" rx="12" ry="6" fill="#f0d9c8"/>
  <!-- Lace collar -->
  <ellipse cx="50" cy="68" rx="14" ry="4" fill="#fff" opacity="0.8"/>
</svg>
