<svg xmlns="http://www.w3.org/2000/svg" viewBox="0 0 100 100">
  <defs>
    <radialGradient id="cosmicBgAurelius" cx="50%" cy="50%" r="70%">
      <stop offset="0%" style="stop-color:#1a1a4a"/>
      <stop offset="50%" style="stop-color:#0d0d20"/>
      <stop offset="100%" style="stop-color:#050510"/>
    </radialGradient>
    <radialGradient id="nebulaAurelius" cx="40%" cy="40%" r="55%">
      <stop offset="0%" style="stop-color:#7b2cbf;stop-opacity:0.2"/>
      <stop offset="100%" style="stop-color:#7b2cbf;stop-opacity:0"/>
    </radialGradient>
  </defs>
  <!-- Cosmic background -->
  <circle cx="50" cy="50" r="50" fill="url(#cosmicBgAurelius)"/>
  <circle cx="50" cy="50" r="50" fill="url(#nebulaAurelius)"/>
  <!-- Stars -->
  <circle cx="15" cy="20" r="0.6" fill="#fff" opacity="0.7"/>
  <circle cx="85" cy="18" r="0.5" fill="#4fc3f7" opacity="0.6"/>
  <circle cx="80" cy="78" r="0.6" fill="#fff" opacity="0.5"/>
  <circle cx="20" cy="82" r="0.5" fill="#4fc3f7" opacity="0.6"/>
  <circle cx="10" cy="50" r="0.4" fill="#ffd700" opacity="0.5"/>
  <path d="M15 20 L28 32 M85 18 L72 30" stroke="#7b2cbf" stroke-width="0.3" opacity="0.25"/>
  <!-- Curly Roman hair -->
  <ellipse cx="50" cy="30" rx="24" ry="18" fill="#5a4a3a"/>
  <circle cx="32" cy="28" r="6" fill="#5a4a3a"/>
  <circle cx="68" cy="28" r="6" fill="#5a4a3a"/>
  <circle cx="40" cy="22" r="5" fill="#5a4a3a"/>
  <circle cx="60" cy="22" r="5" fill="#5a4a3a"/>
  <!-- Face -->
  <ellipse cx="50" cy="45" rx="18" ry="22" fill="#e0c8b0"/>
  <!-- Beard -->
  <ellipse cx="50" cy="58" rx="14" ry="10" fill="#5a4a3a"/>
  <ellipse cx="50" cy="52" rx="16" ry="6" fill="#e0c8b0"/>
  <!-- Eyes - thoughtful -->
  <ellipse cx="42" cy="40" rx="3" ry="2" fill="#4a3a2a"/>
  <ellipse cx="58" cy="40" rx="3" ry="2" fill="#4a3a2a"/>
  <!-- Roman toga -->
  <ellipse cx="50" cy="88" rx="26" ry="16" fill="#8b1a1a"/>
  <!-- Toga drape -->
  <path d="M 30 75 Q 50 82 70 75" stroke="#f5f0e8" stroke-width="4" fill="none"/>
  <ellipse cx="50" cy="72" rx="8" ry="4" fill="#e0c8b0"/>
</svg>
