<svg xmlns="http://www.w3.org/2000/svg" viewBox="0 0 100 100">
  <defs>
    <radialGradient id="cosmicBgBohr" cx="50%" cy="50%" r="70%">
      <stop offset="0%" style="stop-color:#1a1a4a"/>
      <stop offset="50%" style="stop-color:#0d0d20"/>
      <stop offset="100%" style="stop-color:#050510"/>
    </radialGradient>
    <radialGradient id="nebulaBohr" cx="40%" cy="40%" r="55%">
      <stop offset="0%" style="stop-color:#7b2cbf;stop-opacity:0.2"/>
      <stop offset="100%" style="stop-color:#7b2cbf;stop-opacity:0"/>
    </radialGradient>
  </defs>
  <!-- Cosmic background -->
  <circle cx="50" cy="50" r="50" fill="url(#cosmicBgBohr)"/>
  <circle cx="50" cy="50" r="50" fill="url(#nebulaBohr)"/>
  <!-- Stars -->
  <circle cx="15" cy="20" r="0.6" fill="#fff" opacity="0.7"/>
  <circle cx="85" cy="18" r="0.5" fill="#4fc3f7" opacity="0.6"/>
  <circle cx="80" cy="78" r="0.6" fill="#fff" opacity="0.5"/>
  <circle cx="20" cy="82" r="0.5" fill="#4fc3f7" opacity="0.6"/>
  <circle cx="10" cy="50" r="0.4" fill="#ffd700" opacity="0.5"/>
  <path d="M15 20 L28 32 M85 18 L72 30" stroke="#7b2cbf" stroke-width="0.3" opacity="0.25"/>
  <!-- Thinning hair, combed back -->
  <ellipse cx="50" cy="26" rx="18" ry="10" fill="#4b3b2b"/>
  <!-- Large forehead -->
  <ellipse cx="50" cy="32" rx="17" ry="9" fill="#e8d4c4"/>
  <!-- Face - round -->
  <ellipse cx="50" cy="46" rx="18" ry="20" fill="#e8d4c4"/>
  <!-- Thoughtful eyes -->
  <circle cx="43" cy="44" r="2.5" fill="#4a3728"/>
  <circle cx="57" cy="44" r="2.5" fill="#4a3728"/>
  <!-- Larger nose -->
  <ellipse cx="50" cy="52" rx="3" ry="4" fill="#d4c0b0"/>
  <!-- Gentle expression -->
  <path d="M 44 58 Q 50 61 56 58" stroke="#8b6b5c" stroke-width="1.5" fill="none"/>
  <!-- Suit -->
  <ellipse cx="50" cy="85" rx="24" ry="20" fill="#3d4d5d"/>
  <polygon points="50,68 44,85 56,85" fill="#ecf0f1"/>
  <rect x="48" y="68" width="4" height="15" fill="#5a3a2a"/>
</svg>
