<svg xmlns="http://www.w3.org/2000/svg" viewBox="0 0 100 100">
  <defs>
    <radialGradient id="cosmicBgBrahe" cx="50%" cy="50%" r="70%">
      <stop offset="0%" style="stop-color:#1a1a4a"/>
      <stop offset="50%" style="stop-color:#0d0d20"/>
      <stop offset="100%" style="stop-color:#050510"/>
    </radialGradient>
    <radialGradient id="nebulaBrahe" cx="40%" cy="40%" r="55%">
      <stop offset="0%" style="stop-color:#7b2cbf;stop-opacity:0.2"/>
      <stop offset="100%" style="stop-color:#7b2cbf;stop-opacity:0"/>
    </radialGradient>
  </defs>
  <!-- Cosmic background -->
  <circle cx="50" cy="50" r="50" fill="url(#cosmicBgBrahe)"/>
  <circle cx="50" cy="50" r="50" fill="url(#nebulaBrahe)"/>
  <!-- Stars -->
  <circle cx="15" cy="20" r="0.6" fill="#fff" opacity="0.7"/>
  <circle cx="85" cy="18" r="0.5" fill="#4fc3f7" opacity="0.6"/>
  <circle cx="80" cy="78" r="0.6" fill="#fff" opacity="0.5"/>
  <circle cx="20" cy="82" r="0.5" fill="#4fc3f7" opacity="0.6"/>
  <circle cx="10" cy="50" r="0.4" fill="#ffd700" opacity="0.5"/>
  <path d="M15 20 L28 32 M85 18 L72 30" stroke="#7b2cbf" stroke-width="0.3" opacity="0.25"/>
  <!-- Renaissance hair and mustache -->
  <ellipse cx="50" cy="28" rx="22" ry="14" fill="#8b5a2b"/>
  <ellipse cx="30" cy="36" rx="8" ry="14" fill="#8b5a2b"/>
  <ellipse cx="70" cy="36" rx="8" ry="14" fill="#8b5a2b"/>
  <!-- Face -->
  <ellipse cx="50" cy="44" rx="17" ry="20" fill="#e8d4c4"/>
  <!-- Famous metal nose! -->
  <ellipse cx="50" cy="50" rx="3" ry="5" fill="#c9a227"/>
  <!-- Large mustache -->
  <path d="M 35 52 Q 42 56 50 52 Q 58 56 65 52" fill="#8b5a2b"/>
  <!-- Pointed beard -->
  <ellipse cx="50" cy="62" rx="8" ry="8" fill="#8b5a2b"/>
  <!-- Noble eyes -->
  <circle cx="43" cy="42" r="2.5" fill="#3d2817"/>
  <circle cx="57" cy="42" r="2.5" fill="#3d2817"/>
  <!-- Rich Renaissance attire -->
  <ellipse cx="50" cy="85" rx="24" ry="20" fill="#8b2020"/>
  <!-- Ruff collar -->
  <ellipse cx="50" cy="70" rx="16" ry="6" fill="#f5f5f0"/>
  <!-- Gold chain -->
  <path d="M 35 75 Q 50 82 65 75" stroke="#c9a227" stroke-width="3" fill="none"/>
</svg>
