<svg xmlns="http://www.w3.org/2000/svg" viewBox="0 0 100 100">
  <defs>
    <linearGradient id="bgCleo" x1="0%" y1="0%" x2="0%" y2="100%">
      <stop offset="0%" style="stop-color:#3d2e1a"/>
      <stop offset="100%" style="stop-color:#1a1408"/>
    </linearGradient>
  </defs>
  <circle cx="50" cy="50" r="50" fill="url(#bgCleo)"/>
  <!-- Egyptian headdress -->
  <path d="M25 55 L50 15 L75 55 L70 60 L50 35 L30 60 Z" fill="#d4af37"/>
  <rect x="35" y="15" width="30" height="8" fill="#d4af37"/>
  <!-- Face -->
  <ellipse cx="50" cy="48" rx="18" ry="20" fill="#d4a574"/>
  <!-- Hair sides -->
  <rect x="28" y="40" width="8" height="30" rx="2" fill="#1a1a1a"/>
  <rect x="64" y="40" width="8" height="30" rx="2" fill="#1a1a1a"/>
  <!-- Eyes with kohl -->
  <ellipse cx="43" cy="45" rx="5" ry="3" fill="#2a2a2a"/>
  <ellipse cx="57" cy="45" rx="5" ry="3" fill="#2a2a2a"/>
  <line x1="38" y1="44" x2="33" y2="42" stroke="#2a2a2a" stroke-width="2"/>
  <line x1="62" y1="44" x2="67" y2="42" stroke="#2a2a2a" stroke-width="2"/>
  <!-- Lips -->
  <ellipse cx="50" cy="56" rx="5" ry="2" fill="#a85050"/>
  <!-- Collar -->
  <ellipse cx="50" cy="78" rx="25" ry="12" fill="#d4af37"/>
  <ellipse cx="50" cy="78" rx="20" ry="8" fill="#1a5040"/>
</svg>

