<svg xmlns="http://www.w3.org/2000/svg" viewBox="0 0 100 100">
  <defs>
    <radialGradient id="cosmicBgCurie" cx="50%" cy="50%" r="70%">
      <stop offset="0%" style="stop-color:#1a1a4a"/>
      <stop offset="50%" style="stop-color:#0d0d20"/>
      <stop offset="100%" style="stop-color:#050510"/>
    </radialGradient>
    <radialGradient id="nebulaCurie" cx="35%" cy="35%" r="55%">
      <stop offset="0%" style="stop-color:#00ff88;stop-opacity:0.15"/>
      <stop offset="100%" style="stop-color:#00ff88;stop-opacity:0"/>
    </radialGradient>
  </defs>
  <!-- Cosmic background -->
  <circle cx="50" cy="50" r="50" fill="url(#cosmicBgCurie)"/>
  <circle cx="50" cy="50" r="50" fill="url(#nebulaCurie)"/>
  <!-- Stars (radioactive glow effect) -->
  <circle cx="12" cy="15" r="0.6" fill="#00ff88" opacity="0.8"/>
  <circle cx="88" cy="18" r="0.5" fill="#fff" opacity="0.6"/>
  <circle cx="82" cy="80" r="0.7" fill="#4fc3f7" opacity="0.7"/>
  <circle cx="18" cy="78" r="0.5" fill="#00ff88" opacity="0.6"/>
  <circle cx="8" cy="50" r="0.4" fill="#fff" opacity="0.5"/>
  <!-- Constellation line -->
  <path d="M12 15 L28 28 M88 18 L75 32" stroke="#00ff88" stroke-width="0.3" opacity="0.3"/>
  <!-- Hair up in bun -->
  <ellipse cx="50" cy="20" rx="15" ry="12" fill="#4a3a2a"/>
  <ellipse cx="50" cy="35" rx="22" ry="18" fill="#4a3a2a"/>
  <!-- Face -->
  <ellipse cx="50" cy="48" rx="17" ry="20" fill="#e8d4c4"/>
  <!-- Hair wisps -->
  <path d="M30 45 Q35 35 38 45" stroke="#4a3a2a" stroke-width="3" fill="none"/>
  <path d="M70 45 Q65 35 62 45" stroke="#4a3a2a" stroke-width="3" fill="none"/>
  <!-- Eyes -->
  <ellipse cx="43" cy="46" rx="3" ry="2" fill="#4a5568"/>
  <ellipse cx="57" cy="46" rx="3" ry="2" fill="#4a5568"/>
  <!-- Nose -->
  <path d="M50 48 L51 54 L49 54" stroke="#d4b8a8" stroke-width="1" fill="none"/>
  <!-- Slight smile -->
  <path d="M45 58 Q50 62 55 58" stroke="#a08080" stroke-width="1.5" fill="none"/>
  <!-- High collar dress -->
  <ellipse cx="50" cy="85" rx="24" ry="18" fill="#2a2a3a"/>
  <rect x="42" y="68" width="16" height="12" fill="#2a2a3a"/>
  <rect x="44" y="68" width="12" height="8" fill="#eee8d5"/>
</svg>
