<svg xmlns="http://www.w3.org/2000/svg" viewBox="0 0 100 100">
  <defs>
    <radialGradient id="cosmicBgDarwin" cx="50%" cy="50%" r="70%">
      <stop offset="0%" style="stop-color:#1a1a4a"/>
      <stop offset="50%" style="stop-color:#0d0d20"/>
      <stop offset="100%" style="stop-color:#050510"/>
    </radialGradient>
    <radialGradient id="nebulaDarwin" cx="40%" cy="40%" r="55%">
      <stop offset="0%" style="stop-color:#7b2cbf;stop-opacity:0.2"/>
      <stop offset="100%" style="stop-color:#7b2cbf;stop-opacity:0"/>
    </radialGradient>
  </defs>
  <!-- Cosmic background -->
  <circle cx="50" cy="50" r="50" fill="url(#cosmicBgDarwin)"/>
  <circle cx="50" cy="50" r="50" fill="url(#nebulaDarwin)"/>
  <!-- Stars -->
  <circle cx="15" cy="20" r="0.6" fill="#fff" opacity="0.7"/>
  <circle cx="85" cy="18" r="0.5" fill="#4fc3f7" opacity="0.6"/>
  <circle cx="80" cy="78" r="0.6" fill="#fff" opacity="0.5"/>
  <circle cx="20" cy="82" r="0.5" fill="#4fc3f7" opacity="0.6"/>
  <circle cx="10" cy="50" r="0.4" fill="#ffd700" opacity="0.5"/>
  <path d="M15 20 L28 32 M85 18 L72 30" stroke="#7b2cbf" stroke-width="0.3" opacity="0.25"/>
  <!-- Bald head with side hair -->
  <ellipse cx="50" cy="35" rx="18" ry="18" fill="#e8d4c4"/>
  <ellipse cx="28" cy="42" rx="8" ry="14" fill="#8b8b8b"/>
  <ellipse cx="72" cy="42" rx="8" ry="14" fill="#8b8b8b"/>
  <!-- Face -->
  <ellipse cx="50" cy="46" rx="17" ry="18" fill="#e8d4c4"/>
  <!-- Massive iconic beard -->
  <ellipse cx="50" cy="62" rx="20" ry="16" fill="#8b8b8b"/>
  <!-- Thoughtful eyes under heavy brows -->
  <circle cx="43" cy="44" r="2.5" fill="#3d2817"/>
  <circle cx="57" cy="44" r="2.5" fill="#3d2817"/>
  <line x1="38" y1="40" x2="48" y2="42" stroke="#5b5b5b" stroke-width="2"/>
  <line x1="52" y1="42" x2="62" y2="40" stroke="#5b5b5b" stroke-width="2"/>
  <!-- Nose -->
  <ellipse cx="50" cy="52" rx="2.5" ry="4" fill="#d4c0b0"/>
  <!-- Victorian coat -->
  <ellipse cx="50" cy="85" rx="24" ry="20" fill="#2d2d2d"/>
</svg>
