<svg xmlns="http://www.w3.org/2000/svg" viewBox="0 0 100 100">
  <defs>
    <radialGradient id="cosmicBgDavinci" cx="50%" cy="50%" r="70%">
      <stop offset="0%" style="stop-color:#1a1a4a"/>
      <stop offset="50%" style="stop-color:#0d0d20"/>
      <stop offset="100%" style="stop-color:#050510"/>
    </radialGradient>
    <radialGradient id="nebulaDavinci" cx="25%" cy="40%" r="55%">
      <stop offset="0%" style="stop-color:#7b2cbf;stop-opacity:0.2"/>
      <stop offset="100%" style="stop-color:#7b2cbf;stop-opacity:0"/>
    </radialGradient>
  </defs>
  <!-- Cosmic background -->
  <circle cx="50" cy="50" r="50" fill="url(#cosmicBgDavinci)"/>
  <circle cx="50" cy="50" r="50" fill="url(#nebulaDavinci)"/>
  <!-- Stars -->
  <circle cx="14" cy="15" r="0.6" fill="#fff" opacity="0.7"/>
  <circle cx="86" cy="20" r="0.5" fill="#4fc3f7" opacity="0.8"/>
  <circle cx="78" cy="80" r="0.7" fill="#fff" opacity="0.6"/>
  <circle cx="22" cy="78" r="0.5" fill="#4fc3f7" opacity="0.7"/>
  <circle cx="92" cy="50" r="0.4" fill="#fff" opacity="0.5"/>
  <!-- Constellation line -->
  <path d="M14 15 L28 28 M86 20 L78 32" stroke="#9d4edd" stroke-width="0.3" opacity="0.3"/>
  <!-- Renaissance hat -->
  <ellipse cx="50" cy="22" rx="28" ry="10" fill="#8b4513"/>
  <ellipse cx="50" cy="20" rx="22" ry="6" fill="#a0522d"/>
  <!-- Long hair -->
  <ellipse cx="35" cy="45" rx="12" ry="25" fill="#8b7355"/>
  <ellipse cx="65" cy="45" rx="12" ry="25" fill="#8b7355"/>
  <!-- Face -->
  <ellipse cx="50" cy="45" rx="18" ry="22" fill="#e8d4c4"/>
  <!-- Long beard -->
  <ellipse cx="50" cy="65" rx="15" ry="18" fill="#8b7355"/>
  <!-- Eyes -->
  <circle cx="43" cy="42" r="3" fill="#4a3728"/>
  <circle cx="57" cy="42" r="3" fill="#4a3728"/>
  <!-- Nose -->
  <path d="M50 45 L52 52 L48 52 Z" fill="#d4b8a8"/>
  <!-- Body -->
  <ellipse cx="50" cy="88" rx="24" ry="15" fill="#5a4a3a"/>
</svg>
