<svg xmlns="http://www.w3.org/2000/svg" viewBox="0 0 100 100">
  <defs>
    <linearGradient id="bgEliz" x1="0%" y1="0%" x2="0%" y2="100%">
      <stop offset="0%" style="stop-color:#4a2a3a"/>
      <stop offset="100%" style="stop-color:#2a1520"/>
    </linearGradient>
  </defs>
  <circle cx="50" cy="50" r="50" fill="url(#bgEliz)"/>
  <!-- Elaborate red hair -->
  <ellipse cx="50" cy="35" rx="30" ry="25" fill="#8b3a1a"/>
  <circle cx="28" cy="35" r="10" fill="#8b3a1a"/>
  <circle cx="72" cy="35" r="10" fill="#8b3a1a"/>
  <circle cx="35" cy="22" r="6" fill="#8b3a1a"/>
  <circle cx="65" cy="22" r="6" fill="#8b3a1a"/>
  <!-- Pearls in hair -->
  <circle cx="40" cy="25" r="2" fill="#eee8d5"/>
  <circle cx="60" cy="25" r="2" fill="#eee8d5"/>
  <circle cx="50" cy="18" r="2" fill="#eee8d5"/>
  <!-- Face - white makeup -->
  <ellipse cx="50" cy="48" rx="16" ry="18" fill="#f5f0e8"/>
  <!-- Arched eyebrows -->
  <path d="M38 40 Q43 36 48 40" stroke="#5a3a2a" stroke-width="1.5" fill="none"/>
  <path d="M52 40 Q57 36 62 40" stroke="#5a3a2a" stroke-width="1.5" fill="none"/>
  <!-- Eyes -->
  <ellipse cx="43" cy="45" rx="3" ry="2" fill="#4a3728"/>
  <ellipse cx="57" cy="45" rx="3" ry="2" fill="#4a3728"/>
  <!-- Small red lips -->
  <ellipse cx="50" cy="56" rx="4" ry="2" fill="#a83232"/>
  <!-- Ruff collar -->
  <ellipse cx="50" cy="72" rx="32" ry="10" fill="#eee8d5"/>
  <ellipse cx="50" cy="72" rx="28" ry="7" fill="#ddd8c5"/>
  <!-- Jeweled bodice -->
  <ellipse cx="50" cy="88" rx="24" ry="14" fill="#2a1a3a"/>
  <path d="M35 80 L50 90 L65 80" stroke="#d4af37" stroke-width="2" fill="none"/>
  <circle cx="50" cy="78" r="3" fill="#d4af37"/>
</svg>

