<svg xmlns="http://www.w3.org/2000/svg" viewBox="0 0 100 100">
  <defs>
    <radialGradient id="cosmicBgFermi" cx="50%" cy="50%" r="70%">
      <stop offset="0%" style="stop-color:#1a1a4a"/>
      <stop offset="50%" style="stop-color:#0d0d20"/>
      <stop offset="100%" style="stop-color:#050510"/>
    </radialGradient>
    <radialGradient id="nebulaFermi" cx="40%" cy="40%" r="55%">
      <stop offset="0%" style="stop-color:#7b2cbf;stop-opacity:0.2"/>
      <stop offset="100%" style="stop-color:#7b2cbf;stop-opacity:0"/>
    </radialGradient>
  </defs>
  <!-- Cosmic background -->
  <circle cx="50" cy="50" r="50" fill="url(#cosmicBgFermi)"/>
  <circle cx="50" cy="50" r="50" fill="url(#nebulaFermi)"/>
  <!-- Stars -->
  <circle cx="15" cy="20" r="0.6" fill="#fff" opacity="0.7"/>
  <circle cx="85" cy="18" r="0.5" fill="#4fc3f7" opacity="0.6"/>
  <circle cx="80" cy="78" r="0.6" fill="#fff" opacity="0.5"/>
  <circle cx="20" cy="82" r="0.5" fill="#4fc3f7" opacity="0.6"/>
  <circle cx="10" cy="50" r="0.4" fill="#ffd700" opacity="0.5"/>
  <path d="M15 20 L28 32 M85 18 L72 30" stroke="#7b2cbf" stroke-width="0.3" opacity="0.25"/>
  <!-- Dark wavy hair -->
  <ellipse cx="50" cy="28" rx="20" ry="12" fill="#2d1810"/>
  <ellipse cx="35" cy="28" rx="7" ry="8" fill="#2d1810"/>
  <ellipse cx="65" cy="28" rx="7" ry="8" fill="#2d1810"/>
  <!-- Face -->
  <ellipse cx="50" cy="44" rx="17" ry="20" fill="#e0c8b8"/>
  <!-- Friendly eyes -->
  <circle cx="43" cy="42" r="2.5" fill="#3d2817"/>
  <circle cx="57" cy="42" r="2.5" fill="#3d2817"/>
  <!-- Nose -->
  <ellipse cx="50" cy="50" rx="2.5" ry="4" fill="#d0b8a8"/>
  <!-- Friendly smile -->
  <path d="M 43 54 Q 50 59 57 54" stroke="#8b6b5c" stroke-width="1.5" fill="none"/>
  <!-- Lab coat -->
  <ellipse cx="50" cy="85" rx="24" ry="20" fill="#f5f5f5"/>
  <polygon points="50,68 44,85 56,85" fill="#e8e8e8"/>
</svg>
