<svg xmlns="http://www.w3.org/2000/svg" viewBox="0 0 100 100">
  <defs>
    <radialGradient id="cosmicBgFeynman" cx="50%" cy="50%" r="70%">
      <stop offset="0%" style="stop-color:#1a1a4a"/>
      <stop offset="50%" style="stop-color:#0d0d20"/>
      <stop offset="100%" style="stop-color:#050510"/>
    </radialGradient>
    <radialGradient id="nebulaFeynman" cx="40%" cy="40%" r="55%">
      <stop offset="0%" style="stop-color:#7b2cbf;stop-opacity:0.2"/>
      <stop offset="100%" style="stop-color:#7b2cbf;stop-opacity:0"/>
    </radialGradient>
  </defs>
  <!-- Cosmic background -->
  <circle cx="50" cy="50" r="50" fill="url(#cosmicBgFeynman)"/>
  <circle cx="50" cy="50" r="50" fill="url(#nebulaFeynman)"/>
  <!-- Stars -->
  <circle cx="15" cy="20" r="0.6" fill="#fff" opacity="0.7"/>
  <circle cx="85" cy="18" r="0.5" fill="#4fc3f7" opacity="0.6"/>
  <circle cx="80" cy="78" r="0.6" fill="#fff" opacity="0.5"/>
  <circle cx="20" cy="82" r="0.5" fill="#4fc3f7" opacity="0.6"/>
  <circle cx="10" cy="50" r="0.4" fill="#ffd700" opacity="0.5"/>
  <path d="M15 20 L28 32 M85 18 L72 30" stroke="#7b2cbf" stroke-width="0.3" opacity="0.25"/>
  <!-- Curly dark hair -->
  <ellipse cx="50" cy="28" rx="22" ry="14" fill="#2d1810"/>
  <circle cx="35" cy="26" r="6" fill="#2d1810"/>
  <circle cx="65" cy="26" r="6" fill="#2d1810"/>
  <circle cx="40" cy="22" r="5" fill="#2d1810"/>
  <circle cx="60" cy="22" r="5" fill="#2d1810"/>
  <!-- Face -->
  <ellipse cx="50" cy="44" rx="18" ry="20" fill="#e8d4c4"/>
  <!-- Mischievous eyes -->
  <circle cx="43" cy="42" r="2.5" fill="#4a3728"/>
  <circle cx="57" cy="42" r="2.5" fill="#4a3728"/>
  <!-- Raised eyebrow -->
  <path d="M 39 37 Q 43 35 47 37" stroke="#2d1810" stroke-width="1.5" fill="none"/>
  <!-- Big grin -->
  <path d="M 40 54 Q 50 62 60 54" stroke="#8b6b5c" stroke-width="2" fill="none"/>
  <!-- Casual shirt -->
  <ellipse cx="50" cy="85" rx="24" ry="20" fill="#c44536"/>
  <path d="M 42 68 L 50 75 L 58 68" stroke="#a33526" stroke-width="2" fill="none"/>
</svg>
