<svg xmlns="http://www.w3.org/2000/svg" viewBox="0 0 100 100">
  <defs>
    <radialGradient id="cosmicBgFranklin" cx="50%" cy="50%" r="70%">
      <stop offset="0%" style="stop-color:#1a1a4a"/>
      <stop offset="50%" style="stop-color:#0d0d20"/>
      <stop offset="100%" style="stop-color:#050510"/>
    </radialGradient>
    <radialGradient id="nebulaFranklin" cx="40%" cy="40%" r="55%">
      <stop offset="0%" style="stop-color:#7b2cbf;stop-opacity:0.2"/>
      <stop offset="100%" style="stop-color:#7b2cbf;stop-opacity:0"/>
    </radialGradient>
  </defs>
  <!-- Cosmic background -->
  <circle cx="50" cy="50" r="50" fill="url(#cosmicBgFranklin)"/>
  <circle cx="50" cy="50" r="50" fill="url(#nebulaFranklin)"/>
  <!-- Stars -->
  <circle cx="15" cy="20" r="0.6" fill="#fff" opacity="0.7"/>
  <circle cx="85" cy="18" r="0.5" fill="#4fc3f7" opacity="0.6"/>
  <circle cx="80" cy="78" r="0.6" fill="#fff" opacity="0.5"/>
  <circle cx="20" cy="82" r="0.5" fill="#4fc3f7" opacity="0.6"/>
  <circle cx="10" cy="50" r="0.4" fill="#ffd700" opacity="0.5"/>
  <path d="M15 20 L28 32 M85 18 L72 30" stroke="#7b2cbf" stroke-width="0.3" opacity="0.25"/>
  <!-- Dark wavy hair, 1950s style -->
  <ellipse cx="50" cy="28" rx="22" ry="14" fill="#2d1d10"/>
  <ellipse cx="32" cy="32" rx="8" ry="10" fill="#2d1d10"/>
  <ellipse cx="68" cy="32" rx="8" ry="10" fill="#2d1d10"/>
  <!-- Face -->
  <ellipse cx="50" cy="44" rx="16" ry="19" fill="#e8d4c4"/>
  <!-- Determined eyes -->
  <circle cx="43" cy="42" r="2.5" fill="#4a3728"/>
  <circle cx="57" cy="42" r="2.5" fill="#4a3728"/>
  <!-- Nose -->
  <ellipse cx="50" cy="50" rx="2" ry="3.5" fill="#d4c0b0"/>
  <!-- Serious but warm expression -->
  <path d="M 45 55 Q 50 57 55 55" stroke="#8b6b5c" stroke-width="1.5" fill="none"/>
  <!-- Lab coat -->
  <ellipse cx="50" cy="85" rx="24" ry="20" fill="#f5f5f5"/>
  <path d="M 42 68 L 50 74 L 58 68" stroke="#e8e8e8" stroke-width="2" fill="none"/>
  <!-- Pearl earrings -->
  <circle cx="32" cy="48" r="2" fill="#f5f5f0"/>
  <circle cx="68" cy="48" r="2" fill="#f5f5f0"/>
</svg>
