<svg xmlns="http://www.w3.org/2000/svg" viewBox="0 0 100 100">
  <defs>
    <radialGradient id="cosmicBgFrida" cx="50%" cy="50%" r="70%">
      <stop offset="0%" style="stop-color:#1a1a4a"/>
      <stop offset="50%" style="stop-color:#0d0d20"/>
      <stop offset="100%" style="stop-color:#050510"/>
    </radialGradient>
    <radialGradient id="nebulaFrida" cx="40%" cy="40%" r="55%">
      <stop offset="0%" style="stop-color:#7b2cbf;stop-opacity:0.2"/>
      <stop offset="100%" style="stop-color:#7b2cbf;stop-opacity:0"/>
    </radialGradient>
  </defs>
  <!-- Cosmic background -->
  <circle cx="50" cy="50" r="50" fill="url(#cosmicBgFrida)"/>
  <circle cx="50" cy="50" r="50" fill="url(#nebulaFrida)"/>
  <!-- Stars -->
  <circle cx="15" cy="20" r="0.6" fill="#fff" opacity="0.7"/>
  <circle cx="85" cy="18" r="0.5" fill="#4fc3f7" opacity="0.6"/>
  <circle cx="80" cy="78" r="0.6" fill="#fff" opacity="0.5"/>
  <circle cx="20" cy="82" r="0.5" fill="#4fc3f7" opacity="0.6"/>
  <circle cx="10" cy="50" r="0.4" fill="#ffd700" opacity="0.5"/>
  <path d="M15 20 L28 32 M85 18 L72 30" stroke="#7b2cbf" stroke-width="0.3" opacity="0.25"/>
  <!-- Traditional Mexican hairstyle with flowers -->
  <ellipse cx="50" cy="28" rx="26" ry="18" fill="#1a0a05"/>
  <!-- Hair braids on sides -->
  <ellipse cx="28" cy="32" rx="6" ry="14" fill="#1a0a05"/>
  <ellipse cx="72" cy="32" rx="6" ry="14" fill="#1a0a05"/>
  <!-- Flower crown -->
  <circle cx="38" cy="18" r="5" fill="#e63946"/>
  <circle cx="50" cy="14" r="6" fill="#ff6b6b"/>
  <circle cx="62" cy="18" r="5" fill="#f4a261"/>
  <circle cx="44" cy="12" r="4" fill="#e9c46a"/>
  <circle cx="56" cy="12" r="4" fill="#e76f51"/>
  <!-- Face -->
  <ellipse cx="50" cy="45" rx="18" ry="20" fill="#d4a574"/>
  <!-- Iconic unibrow -->
  <path d="M 36 38 Q 50 34 64 38" stroke="#1a0a05" stroke-width="2.5" fill="none"/>
  <!-- Eyes -->
  <ellipse cx="42" cy="42" rx="3" ry="2.5" fill="#2a1a0a"/>
  <ellipse cx="58" cy="42" rx="3" ry="2.5" fill="#2a1a0a"/>
  <!-- Red lips -->
  <ellipse cx="50" cy="54" rx="5" ry="2" fill="#c1121f"/>
  <!-- Traditional blouse -->
  <ellipse cx="50" cy="85" rx="22" ry="18" fill="#2a9d8f"/>
  <!-- Embroidered neckline -->
  <ellipse cx="50" cy="70" rx="10" ry="4" fill="#d4a574"/>
</svg>
