<svg xmlns="http://www.w3.org/2000/svg" viewBox="0 0 100 100">
  <defs>
    <radialGradient id="cosmicBgGalois" cx="50%" cy="50%" r="70%">
      <stop offset="0%" style="stop-color:#1a1a4a"/>
      <stop offset="50%" style="stop-color:#0d0d20"/>
      <stop offset="100%" style="stop-color:#050510"/>
    </radialGradient>
    <radialGradient id="nebulaGalois" cx="40%" cy="40%" r="55%">
      <stop offset="0%" style="stop-color:#7b2cbf;stop-opacity:0.2"/>
      <stop offset="100%" style="stop-color:#7b2cbf;stop-opacity:0"/>
    </radialGradient>
  </defs>
  <!-- Cosmic background -->
  <circle cx="50" cy="50" r="50" fill="url(#cosmicBgGalois)"/>
  <circle cx="50" cy="50" r="50" fill="url(#nebulaGalois)"/>
  <!-- Stars -->
  <circle cx="15" cy="20" r="0.6" fill="#fff" opacity="0.7"/>
  <circle cx="85" cy="18" r="0.5" fill="#4fc3f7" opacity="0.6"/>
  <circle cx="80" cy="78" r="0.6" fill="#fff" opacity="0.5"/>
  <circle cx="20" cy="82" r="0.5" fill="#4fc3f7" opacity="0.6"/>
  <circle cx="10" cy="50" r="0.4" fill="#ffd700" opacity="0.5"/>
  <path d="M15 20 L28 32 M85 18 L72 30" stroke="#7b2cbf" stroke-width="0.3" opacity="0.25"/>
  <!-- Romantic era curly dark hair -->
  <ellipse cx="50" cy="28" rx="24" ry="16" fill="#2d1810"/>
  <circle cx="32" cy="30" r="8" fill="#2d1810"/>
  <circle cx="68" cy="30" r="8" fill="#2d1810"/>
  <circle cx="38" cy="24" r="6" fill="#2d1810"/>
  <circle cx="62" cy="24" r="6" fill="#2d1810"/>
  <!-- Young face -->
  <ellipse cx="50" cy="44" rx="16" ry="19" fill="#e8d4c4"/>
  <!-- Intense young eyes -->
  <circle cx="43" cy="42" r="2.5" fill="#3d2817"/>
  <circle cx="57" cy="42" r="2.5" fill="#3d2817"/>
  <!-- Defiant expression -->
  <line x1="39" y1="37" x2="47" y2="39" stroke="#2d1810" stroke-width="1.5"/>
  <line x1="53" y1="39" x2="61" y2="37" stroke="#2d1810" stroke-width="1.5"/>
  <!-- Nose -->
  <ellipse cx="50" cy="49" rx="2" ry="4" fill="#d4c0b0"/>
  <!-- Determined expression -->
  <line x1="45" y1="56" x2="55" y2="56" stroke="#8b6b5c" stroke-width="1.5"/>
  <!-- Romantic era coat -->
  <ellipse cx="50" cy="85" rx="24" ry="20" fill="#3d3d4d"/>
  <!-- High collar -->
  <rect x="44" y="65" width="12" height="6" fill="#f5f5f0"/>
</svg>
