<svg xmlns="http://www.w3.org/2000/svg" viewBox="0 0 100 100">
  <defs>
    <radialGradient id="cosmicBgGandhi" cx="50%" cy="50%" r="70%">
      <stop offset="0%" style="stop-color:#1a1a4a"/>
      <stop offset="50%" style="stop-color:#0d0d20"/>
      <stop offset="100%" style="stop-color:#050510"/>
    </radialGradient>
    <radialGradient id="nebulaGandhi" cx="40%" cy="40%" r="55%">
      <stop offset="0%" style="stop-color:#7b2cbf;stop-opacity:0.2"/>
      <stop offset="100%" style="stop-color:#7b2cbf;stop-opacity:0"/>
    </radialGradient>
  </defs>
  <!-- Cosmic background -->
  <circle cx="50" cy="50" r="50" fill="url(#cosmicBgGandhi)"/>
  <circle cx="50" cy="50" r="50" fill="url(#nebulaGandhi)"/>
  <!-- Stars -->
  <circle cx="15" cy="20" r="0.6" fill="#fff" opacity="0.7"/>
  <circle cx="85" cy="18" r="0.5" fill="#4fc3f7" opacity="0.6"/>
  <circle cx="80" cy="78" r="0.6" fill="#fff" opacity="0.5"/>
  <circle cx="20" cy="82" r="0.5" fill="#4fc3f7" opacity="0.6"/>
  <circle cx="10" cy="50" r="0.4" fill="#ffd700" opacity="0.5"/>
  <path d="M15 20 L28 32 M85 18 L72 30" stroke="#7b2cbf" stroke-width="0.3" opacity="0.25"/>
  <!-- Bald head -->
  <ellipse cx="50" cy="40" rx="22" ry="24" fill="#c4a882"/>
  <!-- Ears -->
  <ellipse cx="28" cy="42" rx="5" ry="7" fill="#c4a882"/>
  <ellipse cx="72" cy="42" rx="5" ry="7" fill="#c4a882"/>
  <!-- Round glasses -->
  <circle cx="40" cy="40" r="8" stroke="#4a4a4a" stroke-width="2" fill="none"/>
  <circle cx="60" cy="40" r="8" stroke="#4a4a4a" stroke-width="2" fill="none"/>
  <line x1="48" y1="40" x2="52" y2="40" stroke="#4a4a4a" stroke-width="2"/>
  <!-- Eyes behind glasses -->
  <circle cx="40" cy="40" r="2" fill="#3a2a1a"/>
  <circle cx="60" cy="40" r="2" fill="#3a2a1a"/>
  <!-- Gentle smile -->
  <path d="M 42 52 Q 50 58 58 52" stroke="#7a6a5a" stroke-width="1.5" fill="none"/>
  <!-- Simple white cloth -->
  <ellipse cx="50" cy="85" rx="26" ry="18" fill="#f5f0e8"/>
  <path d="M 35 70 Q 50 75 65 70" stroke="#e0d8c8" stroke-width="1" fill="none"/>
</svg>
