<svg xmlns="http://www.w3.org/2000/svg" viewBox="0 0 100 100">
  <defs>
    <radialGradient id="cosmicBgHawking" cx="50%" cy="50%" r="70%">
      <stop offset="0%" style="stop-color:#1a1a4a"/>
      <stop offset="50%" style="stop-color:#0d0d20"/>
      <stop offset="100%" style="stop-color:#050510"/>
    </radialGradient>
    <radialGradient id="nebulaHawking" cx="40%" cy="40%" r="55%">
      <stop offset="0%" style="stop-color:#7b2cbf;stop-opacity:0.2"/>
      <stop offset="100%" style="stop-color:#7b2cbf;stop-opacity:0"/>
    </radialGradient>
  </defs>
  <!-- Cosmic background -->
  <circle cx="50" cy="50" r="50" fill="url(#cosmicBgHawking)"/>
  <circle cx="50" cy="50" r="50" fill="url(#nebulaHawking)"/>
  <!-- Stars -->
  <circle cx="15" cy="20" r="0.6" fill="#fff" opacity="0.7"/>
  <circle cx="85" cy="18" r="0.5" fill="#4fc3f7" opacity="0.6"/>
  <circle cx="80" cy="78" r="0.6" fill="#fff" opacity="0.5"/>
  <circle cx="20" cy="82" r="0.5" fill="#4fc3f7" opacity="0.6"/>
  <circle cx="10" cy="50" r="0.4" fill="#ffd700" opacity="0.5"/>
  <path d="M15 20 L28 32 M85 18 L72 30" stroke="#7b2cbf" stroke-width="0.3" opacity="0.25"/>
  <!-- Wheelchair headrest hint -->
  <rect x="30" y="60" width="40" height="25" rx="5" fill="#3d3d4d"/>
  <!-- Thin hair -->
  <ellipse cx="50" cy="28" rx="18" ry="10" fill="#6b5b4b"/>
  <!-- Face - thinner due to ALS -->
  <ellipse cx="50" cy="42" rx="15" ry="18" fill="#e8d4c4"/>
  <!-- Glasses -->
  <rect x="38" y="38" width="10" height="8" rx="1" stroke="#2d2d2d" stroke-width="2" fill="none"/>
  <rect x="52" y="38" width="10" height="8" rx="1" stroke="#2d2d2d" stroke-width="2" fill="none"/>
  <line x1="48" y1="42" x2="52" y2="42" stroke="#2d2d2d" stroke-width="2"/>
  <!-- Eyes -->
  <circle cx="43" cy="42" r="2" fill="#4a3728"/>
  <circle cx="57" cy="42" r="2" fill="#4a3728"/>
  <!-- Slight smile -->
  <path d="M 44 52 Q 50 55 56 52" stroke="#8b6b5c" stroke-width="1" fill="none"/>
  <!-- Suit -->
  <ellipse cx="50" cy="85" rx="22" ry="18" fill="#2c3e50"/>
</svg>
