<svg xmlns="http://www.w3.org/2000/svg" viewBox="0 0 100 100">
  <defs>
    <radialGradient id="cosmicBgHypatia" cx="50%" cy="50%" r="70%">
      <stop offset="0%" style="stop-color:#1a1a4a"/>
      <stop offset="50%" style="stop-color:#0d0d20"/>
      <stop offset="100%" style="stop-color:#050510"/>
    </radialGradient>
    <radialGradient id="nebulaHypatia" cx="40%" cy="40%" r="55%">
      <stop offset="0%" style="stop-color:#7b2cbf;stop-opacity:0.2"/>
      <stop offset="100%" style="stop-color:#7b2cbf;stop-opacity:0"/>
    </radialGradient>
  </defs>
  <!-- Cosmic background -->
  <circle cx="50" cy="50" r="50" fill="url(#cosmicBgHypatia)"/>
  <circle cx="50" cy="50" r="50" fill="url(#nebulaHypatia)"/>
  <!-- Stars -->
  <circle cx="15" cy="20" r="0.6" fill="#fff" opacity="0.7"/>
  <circle cx="85" cy="18" r="0.5" fill="#4fc3f7" opacity="0.6"/>
  <circle cx="80" cy="78" r="0.6" fill="#fff" opacity="0.5"/>
  <circle cx="20" cy="82" r="0.5" fill="#4fc3f7" opacity="0.6"/>
  <circle cx="10" cy="50" r="0.4" fill="#ffd700" opacity="0.5"/>
  <path d="M15 20 L28 32 M85 18 L72 30" stroke="#7b2cbf" stroke-width="0.3" opacity="0.25"/>
  <!-- Long dark hair, Greco-Egyptian style -->
  <ellipse cx="50" cy="32" rx="24" ry="18" fill="#2d1d10"/>
  <ellipse cx="28" cy="45" rx="10" ry="20" fill="#2d1d10"/>
  <ellipse cx="72" cy="45" rx="10" ry="20" fill="#2d1d10"/>
  <!-- Face - refined features -->
  <ellipse cx="50" cy="44" rx="16" ry="19" fill="#d8c8b8"/>
  <!-- Intelligent eyes -->
  <circle cx="43" cy="42" r="2.5" fill="#3d2817"/>
  <circle cx="57" cy="42" r="2.5" fill="#3d2817"/>
  <!-- Nose -->
  <ellipse cx="50" cy="50" rx="2" ry="3.5" fill="#c8b8a8"/>
  <!-- Graceful expression -->
  <path d="M 44 55 Q 50 58 56 55" stroke="#8b6b5c" stroke-width="1.5" fill="none"/>
  <!-- Alexandrian dress -->
  <ellipse cx="50" cy="85" rx="24" ry="20" fill="#7a5a8a"/>
  <!-- Gold jewelry -->
  <circle cx="50" cy="66" r="3" fill="#c9a227"/>
  <path d="M 40 68 Q 50 74 60 68" stroke="#c9a227" stroke-width="2" fill="none"/>
</svg>
