<svg xmlns="http://www.w3.org/2000/svg" viewBox="0 0 100 100">
  <defs>
    <radialGradient id="cosmicBgKjohnson" cx="50%" cy="50%" r="70%">
      <stop offset="0%" style="stop-color:#1a1a4a"/>
      <stop offset="50%" style="stop-color:#0d0d20"/>
      <stop offset="100%" style="stop-color:#050510"/>
    </radialGradient>
    <radialGradient id="nebulaKjohnson" cx="40%" cy="40%" r="55%">
      <stop offset="0%" style="stop-color:#7b2cbf;stop-opacity:0.2"/>
      <stop offset="100%" style="stop-color:#7b2cbf;stop-opacity:0"/>
    </radialGradient>
  </defs>
  <!-- Cosmic background -->
  <circle cx="50" cy="50" r="50" fill="url(#cosmicBgKjohnson)"/>
  <circle cx="50" cy="50" r="50" fill="url(#nebulaKjohnson)"/>
  <!-- Stars -->
  <circle cx="15" cy="20" r="0.6" fill="#fff" opacity="0.7"/>
  <circle cx="85" cy="18" r="0.5" fill="#4fc3f7" opacity="0.6"/>
  <circle cx="80" cy="78" r="0.6" fill="#fff" opacity="0.5"/>
  <circle cx="20" cy="82" r="0.5" fill="#4fc3f7" opacity="0.6"/>
  <circle cx="10" cy="50" r="0.4" fill="#ffd700" opacity="0.5"/>
  <path d="M15 20 L28 32 M85 18 L72 30" stroke="#7b2cbf" stroke-width="0.3" opacity="0.25"/>
  <!-- Elegant gray hair -->
  <ellipse cx="50" cy="28" rx="22" ry="14" fill="#6b6b6b"/>
  <ellipse cx="32" cy="34" rx="6" ry="10" fill="#6b6b6b"/>
  <ellipse cx="68" cy="34" rx="6" ry="10" fill="#6b6b6b"/>
  <!-- Face -->
  <ellipse cx="50" cy="44" rx="17" ry="19" fill="#8b6b5b"/>
  <!-- Glasses -->
  <rect x="36" y="38" width="12" height="8" rx="2" stroke="#4a4a4a" stroke-width="2" fill="none"/>
  <rect x="52" y="38" width="12" height="8" rx="2" stroke="#4a4a4a" stroke-width="2" fill="none"/>
  <line x1="48" y1="42" x2="52" y2="42" stroke="#4a4a4a" stroke-width="2"/>
  <!-- Eyes -->
  <circle cx="42" cy="42" r="2" fill="#2d1810"/>
  <circle cx="58" cy="42" r="2" fill="#2d1810"/>
  <!-- Warm smile -->
  <path d="M 44 54 Q 50 58 56 54" stroke="#5b4030" stroke-width="1.5" fill="none"/>
  <!-- Professional dress -->
  <ellipse cx="50" cy="85" rx="24" ry="20" fill="#2c5282"/>
  <!-- Pearl necklace -->
  <circle cx="42" cy="68" r="2" fill="#f5f5f0"/>
  <circle cx="50" cy="66" r="2" fill="#f5f5f0"/>
  <circle cx="58" cy="68" r="2" fill="#f5f5f0"/>
</svg>
