<svg xmlns="http://www.w3.org/2000/svg" viewBox="0 0 100 100">
  <defs>
    <linearGradient id="bgKjohnson" x1="0%" y1="0%" x2="0%" y2="100%">
      <stop offset="0%" style="stop-color:#1a3a5c"/>
      <stop offset="100%" style="stop-color:#0f2540"/>
    </linearGradient>
  </defs>
  <circle cx="50" cy="50" r="50" fill="url(#bgKjohnson)"/>
  <!-- Elegant gray hair -->
  <ellipse cx="50" cy="28" rx="22" ry="14" fill="#6b6b6b"/>
  <ellipse cx="32" cy="34" rx="6" ry="10" fill="#6b6b6b"/>
  <ellipse cx="68" cy="34" rx="6" ry="10" fill="#6b6b6b"/>
  <!-- Face -->
  <ellipse cx="50" cy="44" rx="17" ry="19" fill="#8b6b5b"/>
  <!-- Glasses -->
  <rect x="36" y="38" width="12" height="8" rx="2" stroke="#4a4a4a" stroke-width="2" fill="none"/>
  <rect x="52" y="38" width="12" height="8" rx="2" stroke="#4a4a4a" stroke-width="2" fill="none"/>
  <line x1="48" y1="42" x2="52" y2="42" stroke="#4a4a4a" stroke-width="2"/>
  <!-- Eyes -->
  <circle cx="42" cy="42" r="2" fill="#2d1810"/>
  <circle cx="58" cy="42" r="2" fill="#2d1810"/>
  <!-- Warm smile -->
  <path d="M 44 54 Q 50 58 56 54" stroke="#5b4030" stroke-width="1.5" fill="none"/>
  <!-- Professional dress -->
  <ellipse cx="50" cy="85" rx="24" ry="20" fill="#2c5282"/>
  <!-- Pearl necklace -->
  <circle cx="42" cy="68" r="2" fill="#f5f5f0"/>
  <circle cx="50" cy="66" r="2" fill="#f5f5f0"/>
  <circle cx="58" cy="68" r="2" fill="#f5f5f0"/>
</svg>

