<svg xmlns="http://www.w3.org/2000/svg" viewBox="0 0 100 100">
  <defs>
    <linearGradient id="bgLincoln" x1="0%" y1="0%" x2="0%" y2="100%">
      <stop offset="0%" style="stop-color:#2a2a3a"/>
      <stop offset="100%" style="stop-color:#1a1a25"/>
    </linearGradient>
  </defs>
  <circle cx="50" cy="50" r="50" fill="url(#bgLincoln)"/>
  <!-- Top hat -->
  <rect x="32" y="5" width="36" height="28" rx="2" fill="#1a1a1a"/>
  <ellipse cx="50" cy="33" rx="24" ry="6" fill="#1a1a1a"/>
  <!-- Face - tall and thin -->
  <ellipse cx="50" cy="52" rx="16" ry="24" fill="#d4b89c"/>
  <!-- Hair on sides -->
  <rect x="30" y="35" width="8" height="15" fill="#3a3a3a"/>
  <rect x="62" y="35" width="8" height="15" fill="#3a3a3a"/>
  <!-- Beard (no mustache) -->
  <ellipse cx="50" cy="70" rx="14" ry="12" fill="#3a3a3a"/>
  <ellipse cx="50" cy="62" rx="10" ry="4" fill="#d4b89c"/>
  <!-- Eyes -->
  <circle cx="44" cy="48" r="2" fill="#4a3728"/>
  <circle cx="56" cy="48" r="2" fill="#4a3728"/>
  <!-- Eyebrows -->
  <line x1="40" y1="44" x2="48" y2="45" stroke="#3a3a3a" stroke-width="2"/>
  <line x1="52" y1="45" x2="60" y2="44" stroke="#3a3a3a" stroke-width="2"/>
  <!-- Body with bow tie -->
  <ellipse cx="50" cy="90" rx="22" ry="14" fill="#1a1a1a"/>
  <path d="M45 80 L50 83 L55 80 L55 86 L50 83 L45 86 Z" fill="#ffffff"/>
</svg>

