<svg xmlns="http://www.w3.org/2000/svg" viewBox="0 0 100 100">
  <defs>
    <radialGradient id="cosmicBgMccarthy" cx="50%" cy="50%" r="70%">
      <stop offset="0%" style="stop-color:#1a1a4a"/>
      <stop offset="50%" style="stop-color:#0d0d20"/>
      <stop offset="100%" style="stop-color:#050510"/>
    </radialGradient>
    <radialGradient id="nebulaMccarthy" cx="40%" cy="40%" r="55%">
      <stop offset="0%" style="stop-color:#7b2cbf;stop-opacity:0.2"/>
      <stop offset="100%" style="stop-color:#7b2cbf;stop-opacity:0"/>
    </radialGradient>
  </defs>
  <!-- Cosmic background -->
  <circle cx="50" cy="50" r="50" fill="url(#cosmicBgMccarthy)"/>
  <circle cx="50" cy="50" r="50" fill="url(#nebulaMccarthy)"/>
  <!-- Stars -->
  <circle cx="15" cy="20" r="0.6" fill="#fff" opacity="0.7"/>
  <circle cx="85" cy="18" r="0.5" fill="#4fc3f7" opacity="0.6"/>
  <circle cx="80" cy="78" r="0.6" fill="#fff" opacity="0.5"/>
  <circle cx="20" cy="82" r="0.5" fill="#4fc3f7" opacity="0.6"/>
  <circle cx="10" cy="50" r="0.4" fill="#ffd700" opacity="0.5"/>
  <path d="M15 20 L28 32 M85 18 L72 30" stroke="#7b2cbf" stroke-width="0.3" opacity="0.25"/>
  <!-- Gray beard and hair -->
  <ellipse cx="50" cy="30" rx="22" ry="14" fill="#8b8b8b"/>
  <ellipse cx="32" cy="40" rx="6" ry="12" fill="#8b8b8b"/>
  <ellipse cx="68" cy="40" rx="6" ry="12" fill="#8b8b8b"/>
  <!-- Face -->
  <ellipse cx="50" cy="42" rx="16" ry="18" fill="#e8d4c4"/>
  <!-- Large beard -->
  <ellipse cx="50" cy="60" rx="16" ry="12" fill="#8b8b8b"/>
  <!-- Glasses -->
  <circle cx="42" cy="40" r="6" stroke="#4a4a4a" stroke-width="2" fill="none"/>
  <circle cx="58" cy="40" r="6" stroke="#4a4a4a" stroke-width="2" fill="none"/>
  <line x1="48" y1="40" x2="52" y2="40" stroke="#4a4a4a" stroke-width="2"/>
  <!-- Eyes -->
  <circle cx="42" cy="40" r="2" fill="#4a3728"/>
  <circle cx="58" cy="40" r="2" fill="#4a3728"/>
  <!-- Casual -->
  <ellipse cx="50" cy="85" rx="24" ry="20" fill="#5a6a5a"/>
</svg>
