<svg xmlns="http://www.w3.org/2000/svg" viewBox="0 0 100 100">
  <defs>
    <linearGradient id="bgNapoleon" x1="0%" y1="0%" x2="0%" y2="100%">
      <stop offset="0%" style="stop-color:#1a2a4a"/>
      <stop offset="100%" style="stop-color:#0d1525"/>
    </linearGradient>
  </defs>
  <circle cx="50" cy="50" r="50" fill="url(#bgNapoleon)"/>
  <!-- Bicorne hat -->
  <ellipse cx="50" cy="25" rx="35" ry="8" fill="#1a1a2a"/>
  <path d="M15 25 Q50 10 85 25 Q50 35 15 25" fill="#1a1a2a"/>
  <ellipse cx="50" cy="25" rx="8" ry="4" fill="#d4af37"/>
  <!-- Face -->
  <ellipse cx="50" cy="50" rx="16" ry="20" fill="#e8d4c4"/>
  <!-- Hair - side locks -->
  <path d="M32 40 Q28 50 32 60" stroke="#4a3a2a" stroke-width="6" fill="none"/>
  <path d="M68 40 Q72 50 68 60" stroke="#4a3a2a" stroke-width="6" fill="none"/>
  <!-- Forelock -->
  <path d="M40 35 Q50 30 60 35" stroke="#4a3a2a" stroke-width="4" fill="none"/>
  <!-- Determined eyes -->
  <circle cx="44" cy="48" r="2.5" fill="#4a5568"/>
  <circle cx="56" cy="48" r="2.5" fill="#4a5568"/>
  <!-- Straight nose -->
  <line x1="50" y1="48" x2="50" y2="56" stroke="#d4b8a8" stroke-width="2"/>
  <!-- Set mouth -->
  <path d="M44 62 L50 60 L56 62" stroke="#a08080" stroke-width="1.5" fill="none"/>
  <!-- Military uniform with medals -->
  <ellipse cx="50" cy="88" rx="26" ry="16" fill="#1a3a6a"/>
  <rect x="40" y="72" width="20" height="15" fill="#1a3a6a"/>
  <line x1="40" y1="76" x2="60" y2="76" stroke="#d4af37" stroke-width="2"/>
  <circle cx="45" cy="82" r="3" fill="#d4af37"/>
  <circle cx="55" cy="82" r="3" fill="#d4af37"/>
</svg>

