<svg xmlns="http://www.w3.org/2000/svg" viewBox="0 0 100 100">
  <defs>
    <radialGradient id="cosmicBgNapoleon" cx="50%" cy="50%" r="70%">
      <stop offset="0%" style="stop-color:#1a1a4a"/>
      <stop offset="50%" style="stop-color:#0d0d20"/>
      <stop offset="100%" style="stop-color:#050510"/>
    </radialGradient>
    <radialGradient id="nebulaNapoleon" cx="40%" cy="40%" r="55%">
      <stop offset="0%" style="stop-color:#7b2cbf;stop-opacity:0.2"/>
      <stop offset="100%" style="stop-color:#7b2cbf;stop-opacity:0"/>
    </radialGradient>
  </defs>
  <!-- Cosmic background -->
  <circle cx="50" cy="50" r="50" fill="url(#cosmicBgNapoleon)"/>
  <circle cx="50" cy="50" r="50" fill="url(#nebulaNapoleon)"/>
  <!-- Stars -->
  <circle cx="15" cy="20" r="0.6" fill="#fff" opacity="0.7"/>
  <circle cx="85" cy="18" r="0.5" fill="#4fc3f7" opacity="0.6"/>
  <circle cx="80" cy="78" r="0.6" fill="#fff" opacity="0.5"/>
  <circle cx="20" cy="82" r="0.5" fill="#4fc3f7" opacity="0.6"/>
  <circle cx="10" cy="50" r="0.4" fill="#ffd700" opacity="0.5"/>
  <path d="M15 20 L28 32 M85 18 L72 30" stroke="#7b2cbf" stroke-width="0.3" opacity="0.25"/>
  <!-- Bicorne hat -->
  <ellipse cx="50" cy="25" rx="35" ry="8" fill="#1a1a2a"/>
  <path d="M15 25 Q50 10 85 25 Q50 35 15 25" fill="#1a1a2a"/>
  <ellipse cx="50" cy="25" rx="8" ry="4" fill="#d4af37"/>
  <!-- Face -->
  <ellipse cx="50" cy="50" rx="16" ry="20" fill="#e8d4c4"/>
  <!-- Hair - side locks -->
  <path d="M32 40 Q28 50 32 60" stroke="#4a3a2a" stroke-width="6" fill="none"/>
  <path d="M68 40 Q72 50 68 60" stroke="#4a3a2a" stroke-width="6" fill="none"/>
  <!-- Forelock -->
  <path d="M40 35 Q50 30 60 35" stroke="#4a3a2a" stroke-width="4" fill="none"/>
  <!-- Determined eyes -->
  <circle cx="44" cy="48" r="2.5" fill="#4a5568"/>
  <circle cx="56" cy="48" r="2.5" fill="#4a5568"/>
  <!-- Straight nose -->
  <line x1="50" y1="48" x2="50" y2="56" stroke="#d4b8a8" stroke-width="2"/>
  <!-- Set mouth -->
  <path d="M44 62 L50 60 L56 62" stroke="#a08080" stroke-width="1.5" fill="none"/>
  <!-- Military uniform with medals -->
  <ellipse cx="50" cy="88" rx="26" ry="16" fill="#1a3a6a"/>
  <rect x="40" y="72" width="20" height="15" fill="#1a3a6a"/>
  <line x1="40" y1="76" x2="60" y2="76" stroke="#d4af37" stroke-width="2"/>
  <circle cx="45" cy="82" r="3" fill="#d4af37"/>
  <circle cx="55" cy="82" r="3" fill="#d4af37"/>
</svg>
