<svg xmlns="http://www.w3.org/2000/svg" viewBox="0 0 100 100">
  <defs>
    <radialGradient id="cosmicBgNewton" cx="50%" cy="50%" r="70%">
      <stop offset="0%" style="stop-color:#1a1a4a"/>
      <stop offset="50%" style="stop-color:#0d0d20"/>
      <stop offset="100%" style="stop-color:#050510"/>
    </radialGradient>
    <radialGradient id="nebulaNewton" cx="40%" cy="40%" r="55%">
      <stop offset="0%" style="stop-color:#7b2cbf;stop-opacity:0.2"/>
      <stop offset="100%" style="stop-color:#7b2cbf;stop-opacity:0"/>
    </radialGradient>
  </defs>
  <!-- Cosmic background -->
  <circle cx="50" cy="50" r="50" fill="url(#cosmicBgNewton)"/>
  <circle cx="50" cy="50" r="50" fill="url(#nebulaNewton)"/>
  <!-- Stars -->
  <circle cx="15" cy="20" r="0.6" fill="#fff" opacity="0.7"/>
  <circle cx="85" cy="18" r="0.5" fill="#4fc3f7" opacity="0.6"/>
  <circle cx="80" cy="78" r="0.6" fill="#fff" opacity="0.5"/>
  <circle cx="20" cy="82" r="0.5" fill="#4fc3f7" opacity="0.6"/>
  <circle cx="10" cy="50" r="0.4" fill="#ffd700" opacity="0.5"/>
  <path d="M15 20 L28 32 M85 18 L72 30" stroke="#7b2cbf" stroke-width="0.3" opacity="0.25"/>
  <!-- Long curly wig -->
  <ellipse cx="50" cy="32" rx="28" ry="20" fill="#5b4b3b"/>
  <ellipse cx="28" cy="42" rx="10" ry="16" fill="#5b4b3b"/>
  <ellipse cx="72" cy="42" rx="10" ry="16" fill="#5b4b3b"/>
  <!-- Face -->
  <ellipse cx="50" cy="42" rx="16" ry="18" fill="#e8d4c4"/>
  <!-- Serious eyes -->
  <circle cx="44" cy="40" r="2.5" fill="#3d2817"/>
  <circle cx="56" cy="40" r="2.5" fill="#3d2817"/>
  <!-- Long nose -->
  <ellipse cx="50" cy="48" rx="2" ry="5" fill="#d4c0b0"/>
  <!-- Thin lips -->
  <line x1="45" y1="55" x2="55" y2="55" stroke="#8b6b5c" stroke-width="1.5"/>
  <!-- Period coat -->
  <ellipse cx="50" cy="85" rx="24" ry="20" fill="#6b4423"/>
  <!-- Cravat -->
  <ellipse cx="50" cy="68" rx="8" ry="4" fill="#f5f5f0"/>
</svg>
