<svg xmlns="http://www.w3.org/2000/svg" viewBox="0 0 100 100">
  <defs>
    <radialGradient id="cosmicBgRitchie" cx="50%" cy="50%" r="70%">
      <stop offset="0%" style="stop-color:#1a1a4a"/>
      <stop offset="50%" style="stop-color:#0d0d20"/>
      <stop offset="100%" style="stop-color:#050510"/>
    </radialGradient>
    <radialGradient id="nebulaRitchie" cx="40%" cy="40%" r="55%">
      <stop offset="0%" style="stop-color:#7b2cbf;stop-opacity:0.2"/>
      <stop offset="100%" style="stop-color:#7b2cbf;stop-opacity:0"/>
    </radialGradient>
  </defs>
  <!-- Cosmic background -->
  <circle cx="50" cy="50" r="50" fill="url(#cosmicBgRitchie)"/>
  <circle cx="50" cy="50" r="50" fill="url(#nebulaRitchie)"/>
  <!-- Stars -->
  <circle cx="15" cy="20" r="0.6" fill="#fff" opacity="0.7"/>
  <circle cx="85" cy="18" r="0.5" fill="#4fc3f7" opacity="0.6"/>
  <circle cx="80" cy="78" r="0.6" fill="#fff" opacity="0.5"/>
  <circle cx="20" cy="82" r="0.5" fill="#4fc3f7" opacity="0.6"/>
  <circle cx="10" cy="50" r="0.4" fill="#ffd700" opacity="0.5"/>
  <path d="M15 20 L28 32 M85 18 L72 30" stroke="#7b2cbf" stroke-width="0.3" opacity="0.25"/>
  <!-- Long hair and beard -->
  <ellipse cx="50" cy="32" rx="26" ry="18" fill="#6b5b4b"/>
  <ellipse cx="32" cy="42" rx="8" ry="14" fill="#6b5b4b"/>
  <ellipse cx="68" cy="42" rx="8" ry="14" fill="#6b5b4b"/>
  <!-- Face -->
  <ellipse cx="50" cy="42" rx="16" ry="18" fill="#e8d4c4"/>
  <!-- Beard -->
  <ellipse cx="50" cy="58" rx="14" ry="10" fill="#6b5b4b"/>
  <!-- Eyes -->
  <circle cx="43" cy="40" r="2.5" fill="#4a3728"/>
  <circle cx="57" cy="40" r="2.5" fill="#4a3728"/>
  <!-- Nose -->
  <ellipse cx="50" cy="47" rx="2" ry="3" fill="#d4c0b0"/>
  <!-- Casual shirt -->
  <ellipse cx="50" cy="85" rx="24" ry="20" fill="#4a5a6a"/>
</svg>
