<svg xmlns="http://www.w3.org/2000/svg" viewBox="0 0 100 100">
  <defs>
    <radialGradient id="cosmicBgSchrodinger" cx="50%" cy="50%" r="70%">
      <stop offset="0%" style="stop-color:#1a1a4a"/>
      <stop offset="50%" style="stop-color:#0d0d20"/>
      <stop offset="100%" style="stop-color:#050510"/>
    </radialGradient>
    <radialGradient id="nebulaSchrodinger" cx="40%" cy="40%" r="55%">
      <stop offset="0%" style="stop-color:#7b2cbf;stop-opacity:0.2"/>
      <stop offset="100%" style="stop-color:#7b2cbf;stop-opacity:0"/>
    </radialGradient>
  </defs>
  <!-- Cosmic background -->
  <circle cx="50" cy="50" r="50" fill="url(#cosmicBgSchrodinger)"/>
  <circle cx="50" cy="50" r="50" fill="url(#nebulaSchrodinger)"/>
  <!-- Stars -->
  <circle cx="15" cy="20" r="0.6" fill="#fff" opacity="0.7"/>
  <circle cx="85" cy="18" r="0.5" fill="#4fc3f7" opacity="0.6"/>
  <circle cx="80" cy="78" r="0.6" fill="#fff" opacity="0.5"/>
  <circle cx="20" cy="82" r="0.5" fill="#4fc3f7" opacity="0.6"/>
  <circle cx="10" cy="50" r="0.4" fill="#ffd700" opacity="0.5"/>
  <path d="M15 20 L28 32 M85 18 L72 30" stroke="#7b2cbf" stroke-width="0.3" opacity="0.25"/>
  <!-- Receding hair, glasses -->
  <ellipse cx="50" cy="26" rx="16" ry="10" fill="#4b3b2b"/>
  <!-- Bald forehead -->
  <ellipse cx="50" cy="32" rx="16" ry="8" fill="#e8d4c4"/>
  <!-- Face -->
  <ellipse cx="50" cy="46" rx="17" ry="20" fill="#e8d4c4"/>
  <!-- Round spectacles -->
  <circle cx="42" cy="44" r="7" stroke="#3d3d3d" stroke-width="2" fill="none"/>
  <circle cx="58" cy="44" r="7" stroke="#3d3d3d" stroke-width="2" fill="none"/>
  <line x1="49" y1="44" x2="51" y2="44" stroke="#3d3d3d" stroke-width="2"/>
  <!-- Eyes -->
  <circle cx="42" cy="44" r="2" fill="#4a3728"/>
  <circle cx="58" cy="44" r="2" fill="#4a3728"/>
  <!-- Nose -->
  <ellipse cx="50" cy="52" rx="2" ry="4" fill="#d4c0b0"/>
  <!-- Thoughtful smile -->
  <path d="M 44 58 Q 50 61 56 58" stroke="#8b6b5c" stroke-width="1.5" fill="none"/>
  <!-- Tweed jacket -->
  <ellipse cx="50" cy="85" rx="24" ry="20" fill="#6a5a4a"/>
  <!-- Bow tie -->
  <polygon points="44,68 50,72 56,68 50,65" fill="#8b2323"/>
</svg>
