<svg xmlns="http://www.w3.org/2000/svg" viewBox="0 0 100 100">
  <defs>
    <linearGradient id="bgTubman" x1="0%" y1="0%" x2="0%" y2="100%">
      <stop offset="0%" style="stop-color:#2d3a4a"/>
      <stop offset="100%" style="stop-color:#1a2530"/>
    </linearGradient>
  </defs>
  <circle cx="50" cy="50" r="50" fill="url(#bgTubman)"/>
  <!-- Head wrap / bandana -->
  <ellipse cx="50" cy="28" rx="22" ry="16" fill="#c4a35a"/>
  <path d="M 28 32 Q 50 24 72 32" fill="#c4a35a"/>
  <!-- Wrap knot -->
  <circle cx="50" cy="18" r="6" fill="#c4a35a"/>
  <ellipse cx="44" cy="20" rx="4" ry="3" fill="#b8973e"/>
  <ellipse cx="56" cy="20" rx="4" ry="3" fill="#b8973e"/>
  <!-- Face -->
  <ellipse cx="50" cy="46" rx="18" ry="20" fill="#6b4423"/>
  <!-- Determined eyes -->
  <ellipse cx="42" cy="42" rx="3" ry="2.5" fill="#1a0a00"/>
  <ellipse cx="58" cy="42" rx="3" ry="2.5" fill="#1a0a00"/>
  <!-- Eyebrows - strong -->
  <path d="M 38 38 L 46 39" stroke="#3a2a1a" stroke-width="1.5"/>
  <path d="M 62 38 L 54 39" stroke="#3a2a1a" stroke-width="1.5"/>
  <!-- Nose -->
  <ellipse cx="50" cy="48" rx="3" ry="4" fill="#5a3818"/>
  <!-- Lips -->
  <ellipse cx="50" cy="54" rx="5" ry="2" fill="#4a2818"/>
  <!-- Simple dress -->
  <ellipse cx="50" cy="86" rx="24" ry="18" fill="#3a4a5a"/>
  <!-- White collar -->
  <ellipse cx="50" cy="70" rx="10" ry="4" fill="#f5f0e8"/>
</svg>

