<svg xmlns="http://www.w3.org/2000/svg" viewBox="0 0 100 100">
  <defs>
    <radialGradient id="cosmicBgTubman" cx="50%" cy="50%" r="70%">
      <stop offset="0%" style="stop-color:#1a1a4a"/>
      <stop offset="50%" style="stop-color:#0d0d20"/>
      <stop offset="100%" style="stop-color:#050510"/>
    </radialGradient>
    <radialGradient id="nebulaTubman" cx="40%" cy="40%" r="55%">
      <stop offset="0%" style="stop-color:#7b2cbf;stop-opacity:0.2"/>
      <stop offset="100%" style="stop-color:#7b2cbf;stop-opacity:0"/>
    </radialGradient>
  </defs>
  <!-- Cosmic background -->
  <circle cx="50" cy="50" r="50" fill="url(#cosmicBgTubman)"/>
  <circle cx="50" cy="50" r="50" fill="url(#nebulaTubman)"/>
  <!-- Stars -->
  <circle cx="15" cy="20" r="0.6" fill="#fff" opacity="0.7"/>
  <circle cx="85" cy="18" r="0.5" fill="#4fc3f7" opacity="0.6"/>
  <circle cx="80" cy="78" r="0.6" fill="#fff" opacity="0.5"/>
  <circle cx="20" cy="82" r="0.5" fill="#4fc3f7" opacity="0.6"/>
  <circle cx="10" cy="50" r="0.4" fill="#ffd700" opacity="0.5"/>
  <path d="M15 20 L28 32 M85 18 L72 30" stroke="#7b2cbf" stroke-width="0.3" opacity="0.25"/>
  <!-- Head wrap / bandana -->
  <ellipse cx="50" cy="28" rx="22" ry="16" fill="#c4a35a"/>
  <path d="M 28 32 Q 50 24 72 32" fill="#c4a35a"/>
  <!-- Wrap knot -->
  <circle cx="50" cy="18" r="6" fill="#c4a35a"/>
  <ellipse cx="44" cy="20" rx="4" ry="3" fill="#b8973e"/>
  <ellipse cx="56" cy="20" rx="4" ry="3" fill="#b8973e"/>
  <!-- Face -->
  <ellipse cx="50" cy="46" rx="18" ry="20" fill="#6b4423"/>
  <!-- Determined eyes -->
  <ellipse cx="42" cy="42" rx="3" ry="2.5" fill="#1a0a00"/>
  <ellipse cx="58" cy="42" rx="3" ry="2.5" fill="#1a0a00"/>
  <!-- Eyebrows - strong -->
  <path d="M 38 38 L 46 39" stroke="#3a2a1a" stroke-width="1.5"/>
  <path d="M 62 38 L 54 39" stroke="#3a2a1a" stroke-width="1.5"/>
  <!-- Nose -->
  <ellipse cx="50" cy="48" rx="3" ry="4" fill="#5a3818"/>
  <!-- Lips -->
  <ellipse cx="50" cy="54" rx="5" ry="2" fill="#4a2818"/>
  <!-- Simple dress -->
  <ellipse cx="50" cy="86" rx="24" ry="18" fill="#3a4a5a"/>
  <!-- White collar -->
  <ellipse cx="50" cy="70" rx="10" ry="4" fill="#f5f0e8"/>
</svg>
