<svg xmlns="http://www.w3.org/2000/svg" viewBox="0 0 100 100">
  <defs>
    <radialGradient id="cosmicBgVonneumann" cx="50%" cy="50%" r="70%">
      <stop offset="0%" style="stop-color:#1a1a4a"/>
      <stop offset="50%" style="stop-color:#0d0d20"/>
      <stop offset="100%" style="stop-color:#050510"/>
    </radialGradient>
    <radialGradient id="nebulaVonneumann" cx="40%" cy="40%" r="55%">
      <stop offset="0%" style="stop-color:#7b2cbf;stop-opacity:0.2"/>
      <stop offset="100%" style="stop-color:#7b2cbf;stop-opacity:0"/>
    </radialGradient>
  </defs>
  <!-- Cosmic background -->
  <circle cx="50" cy="50" r="50" fill="url(#cosmicBgVonneumann)"/>
  <circle cx="50" cy="50" r="50" fill="url(#nebulaVonneumann)"/>
  <!-- Stars -->
  <circle cx="15" cy="20" r="0.6" fill="#fff" opacity="0.7"/>
  <circle cx="85" cy="18" r="0.5" fill="#4fc3f7" opacity="0.6"/>
  <circle cx="80" cy="78" r="0.6" fill="#fff" opacity="0.5"/>
  <circle cx="20" cy="82" r="0.5" fill="#4fc3f7" opacity="0.6"/>
  <circle cx="10" cy="50" r="0.4" fill="#ffd700" opacity="0.5"/>
  <path d="M15 20 L28 32 M85 18 L72 30" stroke="#7b2cbf" stroke-width="0.3" opacity="0.25"/>
  <!-- Receding dark hair -->
  <ellipse cx="50" cy="26" rx="20" ry="10" fill="#2d2017"/>
  <!-- Bald forehead -->
  <ellipse cx="50" cy="32" rx="18" ry="8" fill="#e8d4c4"/>
  <!-- Face -->
  <ellipse cx="50" cy="44" rx="18" ry="20" fill="#e8d4c4"/>
  <!-- Eyes with sharp look -->
  <circle cx="43" cy="42" r="2.5" fill="#3d2817"/>
  <circle cx="57" cy="42" r="2.5" fill="#3d2817"/>
  <!-- Nose -->
  <ellipse cx="50" cy="49" rx="2.5" ry="4" fill="#d4c0b0"/>
  <!-- Slight smile -->
  <path d="M 44 55 Q 50 58 56 55" stroke="#8b6b5c" stroke-width="1.5" fill="none"/>
  <!-- Suit -->
  <ellipse cx="50" cy="85" rx="24" ry="20" fill="#3d3d4d"/>
  <polygon points="50,65 44,85 56,85" fill="#ecf0f1"/>
  <rect x="48" y="65" width="4" height="18" fill="#2c3e50"/>
</svg>
